<svg xmlns="http://www.w3.org/2000/svg" viewBox="0 0 500 100" width="500" height="100">
	<style>
		tspan { white-space:pre }
		.shp0 { fill: #5d032c } 
	</style>
	<path id="Layer" fill-rule="evenodd" class="shp0" d="M38.98 4.69C39.33 4.9 39.64 5.18 39.89 5.51C40.13 5.84 40.31 6.22 40.41 6.61C40.51 7.01 40.53 7.43 40.47 7.83C40.41 8.24 40.27 8.63 40.06 8.98L24.14 35.5L81.86 35.5L65.94 8.98C65.51 8.27 65.39 7.42 65.59 6.61C65.79 5.81 66.3 5.12 67.01 4.69C67.72 4.27 68.57 4.14 69.38 4.34C70.18 4.55 70.87 5.06 71.3 5.77L89.14 35.5L96.75 35.5C97.57 35.5 98.38 35.66 99.14 35.98C99.9 36.29 100.59 36.75 101.17 37.33C101.75 37.91 102.21 38.6 102.52 39.36C102.84 40.12 103 40.93 103 41.75L103 48C103 48.82 102.84 49.63 102.52 50.39C102.21 51.15 101.75 51.84 101.17 52.42C100.59 53 99.9 53.46 99.14 53.77C98.38 54.09 97.57 54.25 96.75 54.25L96.75 82.38C96.75 84.43 96.35 86.46 95.56 88.35C94.78 90.25 93.62 91.97 92.17 93.42C90.72 94.87 89 96.03 87.1 96.81C85.21 97.6 83.18 98 81.13 98L24.88 98C22.82 98 20.79 97.6 18.9 96.81C17 96.03 15.28 94.87 13.83 93.42C12.38 91.97 11.22 90.25 10.44 88.35C9.65 86.46 9.25 84.43 9.25 82.38L9.25 54.25C8.43 54.25 7.62 54.09 6.86 53.77C6.1 53.46 5.41 53 4.83 52.42C4.25 51.84 3.79 51.15 3.48 50.39C3.16 49.63 3 48.82 3 48L3 41.75C3 40.93 3.16 40.12 3.48 39.36C3.79 38.6 4.25 37.91 4.83 37.33C5.41 36.75 6.1 36.29 6.86 35.98C7.62 35.66 8.43 35.5 9.25 35.5L16.86 35.5L34.69 5.77C34.9 5.42 35.18 5.11 35.51 4.86C35.84 4.62 36.21 4.44 36.61 4.34C37.01 4.24 37.42 4.22 37.83 4.28C38.23 4.34 38.62 4.48 38.98 4.69L38.98 4.69ZM15.5 54.25L15.5 82.38C15.5 83.61 15.74 84.83 16.21 85.96C16.68 87.1 17.38 88.13 18.25 89C19.12 89.87 20.15 90.57 21.29 91.04C22.42 91.51 23.64 91.75 24.88 91.75L81.13 91.75C82.36 91.75 83.58 91.51 84.71 91.04C85.85 90.57 86.88 89.87 87.75 89C88.62 88.13 89.32 87.1 89.79 85.96C90.26 84.83 90.5 83.61 90.5 82.38L90.5 54.25L15.5 54.25ZM9.25 41.75L9.25 48L96.75 48L96.75 41.75L9.25 41.75ZM28 60.5C28.41 60.5 28.82 60.58 29.2 60.74C29.58 60.89 29.92 61.13 30.21 61.42C30.5 61.71 30.73 62.05 30.89 62.43C31.04 62.81 31.13 63.21 31.13 63.63L31.13 82.38C31.13 83.2 30.8 84 30.21 84.58C29.62 85.17 28.83 85.5 28 85.5C27.17 85.5 26.38 85.17 25.79 84.58C25.2 84 24.88 83.2 24.88 82.38L24.88 63.63C24.88 63.21 24.96 62.81 25.11 62.43C25.27 62.05 25.5 61.71 25.79 61.42C26.08 61.13 26.42 60.89 26.8 60.74C27.18 60.58 27.59 60.5 28 60.5ZM40.5 60.5C40.91 60.5 41.32 60.58 41.7 60.74C42.08 60.89 42.42 61.13 42.71 61.42C43 61.71 43.23 62.05 43.39 62.43C43.54 62.81 43.63 63.21 43.63 63.63L43.63 82.38C43.63 83.2 43.3 84 42.71 84.58C42.12 85.17 41.33 85.5 40.5 85.5C39.67 85.5 38.88 85.17 38.29 84.58C37.7 84 37.38 83.2 37.38 82.38L37.38 63.63C37.38 63.21 37.46 62.81 37.61 62.43C37.77 62.05 38 61.71 38.29 61.42C38.58 61.13 38.92 60.89 39.3 60.74C39.68 60.58 40.09 60.5 40.5 60.5ZM53 60.5C53.41 60.5 53.82 60.58 54.2 60.74C54.58 60.89 54.92 61.13 55.21 61.42C55.5 61.71 55.73 62.05 55.89 62.43C56.04 62.81 56.13 63.21 56.13 63.63L56.13 82.38C56.13 83.2 55.8 84 55.21 84.58C54.62 85.17 53.83 85.5 53 85.5C52.17 85.5 51.38 85.17 50.79 84.58C50.2 84 49.88 83.2 49.88 82.38L49.88 63.63C49.88 63.21 49.96 62.81 50.11 62.43C50.27 62.05 50.5 61.71 50.79 61.42C51.08 61.13 51.42 60.89 51.8 60.74C52.18 60.58 52.59 60.5 53 60.5ZM65.5 60.5C65.91 60.5 66.32 60.58 66.7 60.74C67.08 60.89 67.42 61.13 67.71 61.42C68 61.71 68.23 62.05 68.39 62.43C68.54 62.81 68.63 63.21 68.63 63.63L68.63 82.38C68.63 83.2 68.3 84 67.71 84.58C67.12 85.17 66.33 85.5 65.5 85.5C64.67 85.5 63.88 85.17 63.29 84.58C62.7 84 62.38 83.2 62.38 82.38L62.38 63.63C62.38 63.21 62.46 62.81 62.61 62.43C62.77 62.05 63 61.71 63.29 61.42C63.58 61.13 63.92 60.89 64.3 60.74C64.68 60.58 65.09 60.5 65.5 60.5ZM78 60.5C78.41 60.5 78.82 60.58 79.2 60.74C79.58 60.89 79.92 61.13 80.21 61.42C80.5 61.71 80.73 62.05 80.89 62.43C81.04 62.81 81.13 63.21 81.13 63.63L81.13 82.38C81.13 83.2 80.8 84 80.21 84.58C79.62 85.17 78.83 85.5 78 85.5C77.17 85.5 76.38 85.17 75.79 84.58C75.2 84 74.88 83.2 74.88 82.38L74.88 63.63C74.88 63.21 74.96 62.81 75.11 62.43C75.27 62.05 75.5 61.71 75.79 61.42C76.08 61.13 76.42 60.89 76.8 60.74C77.18 60.58 77.59 60.5 78 60.5Z" />
	<path id="farni-sbirka.cz " fill="#494949" d="M143.44 30.2L139.86 30.2Q138.87 30.2 138.02 30.58Q137.19 30.93 136.56 31.57Q135.92 32.2 135.54 33.06Q135.19 33.91 135.19 34.9L135.19 39.5L142.78 39.5L142.78 43.21L135.19 43.21L135.19 72L131.29 72L131.29 43.21L125.42 43.21L125.42 39.5L131.29 39.5L131.29 35.09Q131.29 33.31 131.95 31.76Q132.62 30.17 133.8 28.99Q134.97 27.82 136.52 27.15Q138.08 26.49 139.86 26.49L143.44 26.49L143.44 30.2ZM169.06 72L167.76 72L165.6 68.76Q164.26 70.51 162.26 71.59Q160.26 72.63 157.88 72.63L156.9 72.63Q154.93 72.63 153.19 71.9Q151.44 71.14 150.14 69.84Q148.84 68.54 148.08 66.79Q147.35 65.05 147.35 63.08L147.35 62.76Q147.35 60.8 148.08 59.05Q148.84 57.31 150.14 56Q151.44 54.7 153.19 53.97Q154.93 53.21 156.9 53.21L165.15 53.21L165.15 48.2Q165.15 47.02 164.71 46.01Q164.26 44.96 163.5 44.2Q162.74 43.44 161.69 42.99Q160.68 42.55 159.5 42.55L157.22 42.55Q156.04 42.55 155 42.99Q153.98 43.44 153.22 44.2Q152.46 44.96 152.01 46.01Q151.57 47.02 151.57 48.2L151.57 49.37L147.66 48.74L147.66 48.42Q147.66 46.45 148.39 44.71Q149.16 42.96 150.46 41.66Q151.76 40.36 153.5 39.63Q155.25 38.87 157.22 38.87L159.5 38.87Q161.47 38.87 163.22 39.63Q164.96 40.36 166.26 41.66Q167.56 42.96 168.29 44.71Q169.06 46.45 169.06 48.42L169.06 72ZM165.15 63.3L165.15 56.26L156.9 56.26Q155.73 56.26 154.68 56.7Q153.66 57.15 152.9 57.94Q152.14 58.7 151.7 59.75Q151.25 60.76 151.25 61.94L151.25 63.3Q151.25 64.48 151.7 65.53Q152.14 66.54 152.9 67.3Q153.66 68.06 154.68 68.51Q155.73 68.95 156.9 68.95L159.5 68.95Q160.68 68.95 161.69 68.51Q162.74 68.06 163.5 67.3Q164.26 66.54 164.71 65.53Q165.15 64.48 165.15 63.3ZM190.32 43.21L186.42 43.21Q185.24 43.21 184.2 43.66Q183.18 44.1 182.42 44.86Q181.66 45.63 181.21 46.67Q180.77 47.69 180.77 48.86L180.77 72L176.86 72L176.86 39.5L178.17 39.5L180.29 42.8Q181.62 40.99 183.62 39.94Q185.66 38.87 188.04 38.87L190.32 38.87L190.32 43.21ZM217.24 72L213.33 72L213.33 48.2Q213.33 47.02 212.89 46.01Q212.44 44.96 211.68 44.2Q210.92 43.44 209.87 42.99Q208.86 42.55 207.68 42.55L205.08 42.55Q203.9 42.55 202.86 42.99Q201.84 43.44 201.08 44.2Q200.32 44.96 199.87 46.01Q199.43 47.02 199.43 48.2L199.43 72L195.53 72L195.53 39.5L196.83 39.5L198.95 42.8Q200.29 40.99 202.29 39.94Q204.32 38.87 206.7 38.87L207.68 38.87Q209.65 38.87 211.4 39.63Q213.14 40.36 214.44 41.66Q215.74 42.96 216.47 44.71Q217.24 46.45 217.24 48.42L217.24 72ZM230.57 31.69L226.03 31.69L226.03 26.49L230.57 26.49L230.57 31.69ZM230.25 72L226.34 72L226.34 39.5L230.25 39.5L230.25 72ZM250.85 52.1L238.69 52.1L238.69 48.42L250.85 48.42L250.85 52.1ZM280.36 63.75Q280.36 65.72 279.57 67.37Q278.78 68.98 277.41 70.16Q276.05 71.33 274.24 72Q272.46 72.63 270.49 72.63L267.89 72.63Q265.92 72.63 264.11 71.9Q262.34 71.14 260.97 69.84Q259.64 68.54 258.81 66.79Q258.02 65.05 258.02 63.08L258.02 61.78L261.92 61.15L261.92 63.3Q261.92 64.48 262.4 65.53Q262.91 66.54 263.73 67.3Q264.56 68.06 265.64 68.51Q266.72 68.95 267.89 68.95L270.49 68.95Q271.67 68.95 272.75 68.6Q273.82 68.25 274.65 67.62Q275.51 66.95 275.98 66.03Q276.49 65.11 276.49 63.94Q276.49 62.19 275.73 61.08Q274.97 59.97 273.7 59.24Q272.46 58.48 270.84 58Q269.25 57.5 267.57 57.02Q265.89 56.51 264.27 55.88Q262.68 55.24 261.41 54.23Q260.18 53.18 259.42 51.62Q258.65 50.07 258.65 47.75Q258.65 45.78 259.42 44.17Q260.18 42.52 261.48 41.34Q262.78 40.17 264.49 39.53Q266.24 38.87 268.21 38.87L270.49 38.87Q272.46 38.87 274.21 39.63Q275.95 40.36 277.25 41.66Q278.55 42.96 279.28 44.71Q280.05 46.45 280.05 48.42L280.05 48.55L276.14 49.18L276.14 48.2Q276.14 47.02 275.7 46.01Q275.25 44.96 274.49 44.2Q273.73 43.44 272.68 42.99Q271.67 42.55 270.49 42.55L268.21 42.55Q267.03 42.55 265.99 42.9Q264.97 43.25 264.21 43.91Q263.45 44.55 263 45.47Q262.56 46.39 262.56 47.56Q262.56 49.24 263.32 50.32Q264.08 51.37 265.32 52.1Q266.59 52.83 268.18 53.34Q269.79 53.81 271.44 54.35Q273.13 54.86 274.71 55.53Q276.33 56.19 277.57 57.24Q278.84 58.29 279.6 59.88Q280.36 61.43 280.36 63.75ZM309.56 63.08L309.56 63.08Q309.56 65.05 308.8 66.79Q308.07 68.54 306.77 69.84Q305.47 71.14 303.72 71.9Q301.98 72.63 300.01 72.63L297.41 72.63Q295.44 72.63 293.69 71.9Q291.95 71.14 290.65 69.84Q289.34 68.54 288.58 66.79Q287.85 65.05 287.85 63.08L287.85 26.49L291.76 26.49L291.76 42.23Q293.09 40.64 294.96 39.75Q296.83 38.87 299.02 38.87L300.01 38.87Q301.98 38.87 303.72 39.63Q305.47 40.36 306.77 41.66Q308.07 42.96 308.8 44.71Q309.56 46.45 309.56 48.42L309.56 63.08ZM305.66 63.3L305.66 48.2Q305.66 47.02 305.21 46.01Q304.77 44.96 304.01 44.2Q303.25 43.44 302.2 42.99Q301.18 42.55 300.01 42.55L297.41 42.55Q296.23 42.55 295.18 42.99Q294.17 43.44 293.41 44.2Q292.65 44.96 292.2 46.01Q291.76 47.02 291.76 48.2L291.76 63.3Q291.76 64.48 292.2 65.53Q292.65 66.54 293.41 67.3Q294.17 68.06 295.18 68.51Q296.23 68.95 297.41 68.95L300.01 68.95Q301.18 68.95 302.2 68.51Q303.25 68.06 304.01 67.3Q304.77 66.54 305.21 65.53Q305.66 64.48 305.66 63.3ZM322.89 31.69L318.35 31.69L318.35 26.49L322.89 26.49L322.89 31.69ZM322.57 72L318.67 72L318.67 39.5L322.57 39.5L322.57 72ZM345.14 43.21L341.24 43.21Q340.06 43.21 339.01 43.66Q338 44.1 337.24 44.86Q336.48 45.63 336.03 46.67Q335.59 47.69 335.59 48.86L335.59 72L331.68 72L331.68 39.5L332.98 39.5L335.11 42.8Q336.44 40.99 338.44 39.94Q340.47 38.87 342.86 38.87L345.14 38.87L345.14 43.21ZM374.66 72L369.58 72L356.31 55.75L369.58 39.5L374.66 39.5L361.07 55.75L374.66 72ZM355.55 72L351.65 72L351.65 26.49L355.55 26.49L355.55 72ZM401.57 72L400.27 72L398.11 68.76Q396.78 70.51 394.78 71.59Q392.78 72.63 390.4 72.63L389.42 72.63Q387.45 72.63 385.7 71.9Q383.96 71.14 382.65 69.84Q381.35 68.54 380.59 66.79Q379.86 65.05 379.86 63.08L379.86 62.76Q379.86 60.8 380.59 59.05Q381.35 57.31 382.65 56Q383.96 54.7 385.7 53.97Q387.45 53.21 389.42 53.21L397.67 53.21L397.67 48.2Q397.67 47.02 397.22 46.01Q396.78 44.96 396.02 44.2Q395.26 43.44 394.21 42.99Q393.19 42.55 392.02 42.55L389.73 42.55Q388.56 42.55 387.51 42.99Q386.5 43.44 385.73 44.2Q384.97 44.96 384.53 46.01Q384.08 47.02 384.08 48.2L384.08 49.37L380.18 48.74L380.18 48.42Q380.18 46.45 380.91 44.71Q381.67 42.96 382.97 41.66Q384.27 40.36 386.02 39.63Q387.76 38.87 389.73 38.87L392.02 38.87Q393.99 38.87 395.73 39.63Q397.48 40.36 398.78 41.66Q400.08 42.96 400.81 44.71Q401.57 46.45 401.57 48.42L401.57 72ZM397.67 63.3L397.67 56.26L389.42 56.26Q388.24 56.26 387.19 56.7Q386.18 57.15 385.42 57.94Q384.65 58.7 384.21 59.75Q383.77 60.76 383.77 61.94L383.77 63.3Q383.77 64.48 384.21 65.53Q384.65 66.54 385.42 67.3Q386.18 68.06 387.19 68.51Q388.24 68.95 389.42 68.95L392.02 68.95Q393.19 68.95 394.21 68.51Q395.26 68.06 396.02 67.3Q396.78 66.54 397.22 65.53Q397.67 64.48 397.67 63.3ZM414.9 72L410.01 72L410.01 67.11L414.9 67.11L414.9 72ZM445.05 63.08L445.05 63.08Q445.05 65.05 444.29 66.79Q443.56 68.54 442.26 69.84Q440.96 71.14 439.21 71.9Q437.47 72.63 435.5 72.63L432.9 72.63Q430.93 72.63 429.18 71.9Q427.44 71.14 426.14 69.84Q424.84 68.54 424.07 66.79Q423.34 65.05 423.34 63.08L423.34 48.42Q423.34 46.45 424.07 44.71Q424.84 42.96 426.14 41.66Q427.44 40.36 429.18 39.63Q430.93 38.87 432.9 38.87L435.5 38.87Q437.47 38.87 439.21 39.63Q440.96 40.36 442.26 41.66Q443.56 42.96 444.29 44.71Q445.05 46.45 445.05 48.42L445.05 49.72L441.15 50.35L441.15 48.2Q441.15 47.02 440.7 46.01Q440.26 44.96 439.5 44.2Q438.74 43.44 437.69 42.99Q436.67 42.55 435.5 42.55L432.9 42.55Q431.72 42.55 430.68 42.99Q429.66 43.44 428.9 44.2Q428.14 44.96 427.69 46.01Q427.25 47.02 427.25 48.2L427.25 63.3Q427.25 64.48 427.69 65.53Q428.14 66.54 428.9 67.3Q429.66 68.06 430.68 68.51Q431.72 68.95 432.9 68.95L435.5 68.95Q436.67 68.95 437.69 68.51Q438.74 68.06 439.5 67.3Q440.26 66.54 440.7 65.53Q441.15 64.48 441.15 63.3L441.15 61.15L445.05 61.78L445.05 63.08ZM473.27 72L451.56 72L451.56 70.25L467.94 43.21L452.19 43.21L452.19 39.5L473.27 39.5L473.27 41.25L456.89 68.29L473.27 68.29L473.27 72Z" />
</svg>